# xmcd
#
# Track frame offsets:
#	150
#	17640
#	34565
#	53406
#	68921
#	87254
#	103385
#	118289
#	134074
#	149721
#	167211
#	184136
#	202977
#	218492
#	236825
#	252956
#	267860
#	283645
#
# Disc length: 3990 seconds
#
# Revision: 1
# Processed by: cddbd v1.5.2PL0 Copyright (c) Steve Scherf et al.
# Submitted via: audiograbber 1.83.01
#
DISCID=140f9412
DTITLE=Various Artist - Pop Hits 0705-C
DYEAR=2007
DGENRE=Karaoke
TTITLE0=Carroll, Jason Michael - Livin' Our Love Song
TTITLE1=Swift, Taylor - Teardrops On My Guitar
TTITLE2=Strait, George - Wrapped
TTITLE3=Keith, Toby - High Maintenance Woman
TTITLE4=Pickler, Kellie - I Wonder
TTITLE5=Big and Rich - Lost In This Moment
TTITLE6=Aldean, Jason - Johnny Cash
TTITLE7=Deggs, Cole and The Lonesome - I Got More
TTITLE8=Bradshaw, Woody - Last Thing You Do
TTITLE9=10 - Vocal Demo
TTITLE10=11 - Vocal Demo
TTITLE11=12 - Vocal Demo
TTITLE12=13 - Vocal Demo
TTITLE13=14 - Vocal Demo
TTITLE14=15 - Vocal Demo
TTITLE15=16 - Vocal Demo
TTITLE16=17 - Vocal Demo
TTITLE17=18 - Vocal Demo
EXTD=
EXTT0=
EXTT1=
EXTT2=
EXTT3=
EXTT4=
EXTT5=
EXTT6=
EXTT7=
EXTT8=
EXTT9=
EXTT10=
EXTT11=
EXTT12=
EXTT13=
EXTT14=
EXTT15=
EXTT16=
EXTT17=
PLAYORDER=
